<svg width="21" height="21" viewBox="0 0 21 21" fill="none" xmlns="http://www.w3.org/2000/svg">
<path d="M11.5 5V7.5H10.5V5V4.5H10H7.5V3.5H10H10.5V3V0.5H11.5V3V3.5H12H14.5V4.5H12H11.5V5ZM17.5 14.5V15.5H3.47132L6.03794 10.8413L6.16139 10.6172L6.05187 10.386L2.45187 2.78596L2.31642 2.5H2H0.5V1.5H2.95817L7.07288 10.2135L7.20817 10.5H7.525H14.55H14.8447L14.9874 10.2422L18.7197 3.5H19.8523L15.4301 11.5H7.1H6.80436L6.66189 11.759L5.56189 13.759L5.15436 14.5H6H17.5ZM6 20.5C5.58354 20.5 5.23978 20.3577 4.94155 20.0594C4.64248 19.7604 4.5 19.4162 4.5 19C4.5 18.5838 4.64248 18.2396 4.94155 17.9406C5.23978 17.6423 5.58354 17.5 6 17.5C6.41646 17.5 6.76022 17.6423 7.05845 17.9406C7.35752 18.2396 7.5 18.5838 7.5 19C7.5 19.4162 7.35752 19.7604 7.05845 20.0594C6.76022 20.3577 6.41646 20.5 6 20.5ZM16 20.5C15.5835 20.5 15.2398 20.3577 14.9416 20.0594C14.6425 19.7604 14.5 19.4162 14.5 19C14.5 18.5838 14.6425 18.2396 14.9416 17.9406C15.2398 17.6423 15.5835 17.5 16 17.5C16.4163 17.5 16.7605 17.6423 17.0594 17.9406C17.3577 18.2395 17.5 18.5837 17.5 19C17.5 19.4163 17.3577 19.7605 17.0594 20.0594C16.7605 20.3577 16.4163 20.5 16 20.5Z" stroke="#fff"/>
</svg>
